/* XPM */
static char *_643638031553[] = {
/* columns rows colors chars-per-pixel */
"32 32 6 1 ",
"  c #222034",
". c gray61",
"X c gray78",
"o c gray82",
"O c white",
"+ c None",
/* pixels */
"++++++++++++++++++++++++++++++++",
"++++++++++++++++++++++++++++++++",
"++++++++++++++++++++++++++++++++",
"+++++++++++++++   ++++++++++++++",
"++++++++++++++ XXX +++++++++++++",
"+++++++++++++ XoooO ++++++++++++",
"++++++++++++ XoX XoO +++++++++++",
"+++++++++++ XoX + XoO ++++++++++",
"+++++++++++ Xo +++ oO ++++++++++",
"+++++++++++ Xo +++ oO ++++++++++",
"+++++++++++ Xo +++ oO ++++++++++",
"+++++++++++ XoX + XoX ++++++++++",
"++++++++++++ XoX XoX +++++++++++",
"+++++++++++++ XoXoX ++++++++++++",
"++++++++++++++ XoX +++++++++++++",
"++++++++++++++ XoO +++++++++++++",
"++++++++++++++ XoO +++++++++++++",
"++++++++++++++ XoO +++++++++++++",
"++++++++++++++ XoO +++++++++++++",
"++++++++++++++ XoX +++++++++++++",
"++++++++++++++ XoX +++++++++++++",
"++++++++++++++ XoX +++++++++++++",
"++++++++++++++ XoX   +++++++++++",
"++++++++++++++ Xoooo. ++++++++++",
"++++++++++++++ Xoo.  +++++++++++",
"++++++++++++++ Xoooo. ++++++++++",
"++++++++++++++ Xoooo. ++++++++++",
"++++++++++++++ Xooo. +++++++++++",
"++++++++++++++ Xoo  ++++++++++++",
"+++++++++++++++ o ++++++++++++++",
"++++++++++++++++ +++++++++++++++",
"++++++++++++++++++++++++++++++++"
};
