/* XPM */
static char *_643637990989[] = {
/* columns rows colors chars-per-pixel */
"32 32 6 1 ",
"  c #222034",
". c gray61",
"X c gray78",
"o c gray82",
"O c white",
"+ c None",
/* pixels */
"++++++++++++++++++++++++++++++++",
"++++++++++++++++++++++++++++++++",
"+++++++++++++++   ++++++++++++++",
"++++++++++++++ XXX +++++++++++++",
"++++++++++++++ XoO +++++++++++++",
"+++++++++++++ Xo oO ++++++++++++",
"++++++++++++ XoX XoO +++++++++++",
"++++++++++++ Xo + oO +++++++++++",
"++++++++++++ Xo + oO +++++++++++",
"++++++++++++ Xo + oX +++++++++++",
"++++++++++++ XoX XoX +++++++++++",
"+++++++++++++ Xo oX ++++++++++++",
"++++++++++++++ XoX +++++++++++++",
"++++++++++++++ XoO +++++++++++++",
"++++++++++++++ XoO +++++++++++++",
"++++++++++++++ XoO +++++++++++++",
"++++++++++++++ XoO +++++++++++++",
"++++++++++++++ XoX +++++++++++++",
"++++++++++++++ XoX +++++++++++++",
"++++++++++++++ XoX +++++++++++++",
"++++++++++++++ XoX +++++++++++++",
"++++++++++++++ XoX  ++++++++++++",
"++++++++++++++ Xooo. +++++++++++",
"++++++++++++++ Xo.  ++++++++++++",
"++++++++++++++ Xooo. +++++++++++",
"++++++++++++++ Xooo. +++++++++++",
"++++++++++++++ Xoo. ++++++++++++",
"++++++++++++++ Xoo +++++++++++++",
"+++++++++++++++ o ++++++++++++++",
"++++++++++++++++ +++++++++++++++",
"++++++++++++++++++++++++++++++++",
"++++++++++++++++++++++++++++++++"
};
