/* XPM */
static char *_643637998799[] = {
/* columns rows colors chars-per-pixel */
"32 32 5 1 ",
"  c #222034",
". c gray61",
"X c gray78",
"o c white",
"O c None",
/* pixels */
"OOOOOOOOOOOOOOOOOOOOOOOOOOOOOOOO",
"OOOOOOOOOOOOOOOO  OOOOOOOOOOOOOO",
"OOOOOOOOOOOOOOO XX OOOOOOOOOOOOO",
"OOOOOOOOOOOOOOO XX OOOOOOOOOOOOO",
"OOOOOOOOOOOOOOO Xo OOOOOOOOOOOOO",
"OOOOOOOOOOOOOOO Xo OOOOOOOOOOOOO",
"OOOOOOOOOOOOOOO Xo OOOOOOOOOOOOO",
"OOOOOOOOOOOOOOO Xo OOOOOOOOOOOOO",
"OOOOOOOOOOOOOOO Xo OOOOOOOOOOOOO",
"OOOOOOOOOOOOOOO XX OOOOOOOOOOOOO",
"OOOOOOOOOOOOOOO XX OOOOOOOOOOOOO",
"OOOOOOOOOOOOOOO .. OOOOOOOOOOOOO",
"OOOOOOOOOOOOOOO .. OOOOOOOOOOOOO",
"OOOOOOOOOOOOOOO Xo OOOOOOOOOOOOO",
"OOOOOOOOOOOOOOO Xo OOOOOOOOOOOOO",
"OOOOOOOOOOOOOOO Xo OOOOOOOOOOOOO",
"OOOOOOOOOOOOOOO Xo OOOOOOOOOOOOO",
"OOOOOOOOOOOOOOO XX OOOOOOOOOOOOO",
"OOOOOOOOOOOOOOO XX OOOOOOOOOOOOO",
"OOOOOOOOOOOOOOO XX OOOOOOOOOOOOO",
"OOOOOOOOOOOOOOO X. OOOOOOOOOOOOO",
"OOOOOOOOOOOOOOO .. OOOOOOOOOOOOO",
"OOOOOOOOOOOOOOO X. OOOOOOOOOOOOO",
"OOOOOOOOOOOOOOO .. OOOOOOOOOOOOO",
"OOOOOOOOOOOOOOO .. OOOOOOOOOOOOO",
"OOOOOOOOOOOOOOO .. OOOOOOOOOOOOO",
"OOOOOOOOOOOOOOO X. OOOOOOOOOOOOO",
"OOOOOOOOOOOOOOOO X OOOOOOOOOOOOO",
"OOOOOOOOOOOOOOOOO OOOOOOOOOOOOOO",
"OOOOOOOOOOOOOOOOOOOOOOOOOOOOOOOO",
"OOOOOOOOOOOOOOOOOOOOOOOOOOOOOOOO",
"OOOOOOOOOOOOOOOOOOOOOOOOOOOOOOOO"
};
