/* XPM */
static char *_643638003199[] = {
/* columns rows colors chars-per-pixel */
"32 32 6 1 ",
"  c #222034",
". c gray61",
"X c gray78",
"o c gray82",
"O c white",
"+ c None",
/* pixels */
"++++++++++++++++++++++++++++++++",
"++++++++++++++++++++++++++++++++",
"+++++++++++++++   ++++++++++++++",
"++++++++++++++ XXX +++++++++++++",
"++++++++++++++ OoX +++++++++++++",
"+++++++++++++ Oo oX ++++++++++++",
"++++++++++++ OoX XoX +++++++++++",
"++++++++++++ Oo + oX +++++++++++",
"++++++++++++ Oo + oX +++++++++++",
"++++++++++++ Xo + oX +++++++++++",
"++++++++++++ XoX XoX +++++++++++",
"+++++++++++++ Xo oX ++++++++++++",
"++++++++++++++ XoX +++++++++++++",
"++++++++++++++ OoX +++++++++++++",
"++++++++++++++ OoX +++++++++++++",
"++++++++++++++ OoX +++++++++++++",
"++++++++++++++ OoX +++++++++++++",
"++++++++++++++ XoX +++++++++++++",
"++++++++++++++ XoX +++++++++++++",
"++++++++++++++ XoX +++++++++++++",
"++++++++++++++ XoX +++++++++++++",
"+++++++++++++  XoX +++++++++++++",
"++++++++++++ .oooX +++++++++++++",
"+++++++++++++  XoX +++++++++++++",
"++++++++++++ .oooX +++++++++++++",
"++++++++++++ .oooX +++++++++++++",
"+++++++++++++ .ooX +++++++++++++",
"++++++++++++++ ooX +++++++++++++",
"+++++++++++++++ o ++++++++++++++",
"++++++++++++++++ +++++++++++++++",
"++++++++++++++++++++++++++++++++",
"++++++++++++++++++++++++++++++++"
};
