/* XPM */
static char *_643638007327[] = {
/* columns rows colors chars-per-pixel */
"32 32 6 1 ",
"  c #222034",
". c gray61",
"X c gray78",
"o c gray82",
"O c white",
"+ c None",
/* pixels */
"++++++++++++++++++++++++++++++++",
"++++++++++++++++++++++++++++++++",
"++++++++++++++++++++++++++++++++",
"++++++++++++++++   +++++++++++++",
"+++++++++++++++ XXX ++++++++++++",
"++++++++++++++ OoooX +++++++++++",
"+++++++++++++ OoX XoX ++++++++++",
"++++++++++++ OoX + XoX +++++++++",
"++++++++++++ Oo +++ oX +++++++++",
"++++++++++++ Oo +++ oX +++++++++",
"++++++++++++ Xo +++ oX +++++++++",
"++++++++++++ XoX + XoX +++++++++",
"+++++++++++++ XoX XoX ++++++++++",
"++++++++++++++ XoXoX +++++++++++",
"+++++++++++++++ XoX ++++++++++++",
"+++++++++++++++ OoX ++++++++++++",
"+++++++++++++++ OoX ++++++++++++",
"+++++++++++++++ OoX ++++++++++++",
"+++++++++++++++ OoX ++++++++++++",
"+++++++++++++++ XoX ++++++++++++",
"+++++++++++++++ XoX ++++++++++++",
"+++++++++++++++ XoX ++++++++++++",
"+++++++++++++   XoX ++++++++++++",
"++++++++++++ .ooooX ++++++++++++",
"+++++++++++++  XooX ++++++++++++",
"++++++++++++ .ooooX ++++++++++++",
"++++++++++++ .ooooX ++++++++++++",
"+++++++++++++ .oooX ++++++++++++",
"++++++++++++++  ooX ++++++++++++",
"++++++++++++++++ o +++++++++++++",
"+++++++++++++++++ ++++++++++++++",
"++++++++++++++++++++++++++++++++"
};
