/* XPM */
static char *_643638011248[] = {
/* columns rows colors chars-per-pixel */
"32 32 6 1 ",
"  c #222034",
". c gray61",
"X c gray78",
"o c gray82",
"O c white",
"+ c None",
/* pixels */
"++++++++++++++++++++++++++++++++",
"++++++++++++++++++++++++++++++++",
"++++++++++++++++++++++++++++++++",
"++++++++++++++++++++++++++++++++",
"+++++++++++++++     ++++++++++++",
"++++++++++++++ XXXXX +++++++++++",
"+++++++++++++ OoooooX ++++++++++",
"++++++++++++ OoX   XoX +++++++++",
"+++++++++++ OoX +++ XoX ++++++++",
"+++++++++++ Oo +++++ oX ++++++++",
"+++++++++++ Oo +++++ oX ++++++++",
"+++++++++++ Xo +++++ oX ++++++++",
"+++++++++++ XoX +++ XoX ++++++++",
"++++++++++++ XoX   XoX +++++++++",
"+++++++++++++ XooXooX ++++++++++",
"++++++++++++++ XoXoX +++++++++++",
"+++++++++++++++ XoX ++++++++++++",
"+++++++++++++++ OoX ++++++++++++",
"+++++++++++++++ OoX ++++++++++++",
"+++++++++++++++ OoX ++++++++++++",
"+++++++++++++++ OoX ++++++++++++",
"+++++++++++++++ XoX ++++++++++++",
"+++++++++++++++ XoX ++++++++++++",
"++++++++++++    XoX ++++++++++++",
"+++++++++++ .oooooX ++++++++++++",
"++++++++++++  .oooX ++++++++++++",
"+++++++++++ .oooooX ++++++++++++",
"+++++++++++ .oooooX ++++++++++++",
"++++++++++++ .ooooX ++++++++++++",
"+++++++++++++   ooX ++++++++++++",
"++++++++++++++++ o +++++++++++++",
"+++++++++++++++++ ++++++++++++++"
};
