/* XPM */
static char *_643638015250[] = {
/* columns rows colors chars-per-pixel */
"32 32 4 1 ",
"  c #222034",
". c gray78",
"X c gray82",
"o c None",
/* pixels */
"oooooooooooooooooooooooooooooooo",
"oooooooooooooooooooooooooooooooo",
"oooooooooooooooooooooooooooooooo",
"oooooooooooooooo   ooooooooooooo",
"ooooooooooooooo ... oooooooooooo",
"oooooooooooooo .XXX. ooooooooooo",
"ooooooooooooo .X. .X. oooooooooo",
"oooooooooooo .X. o .X. ooooooooo",
"oooooooooooo .X ooo X. ooooooooo",
"oooooooooooo .X ooo X. ooooooooo",
"oooooooooooo .X ooo X. ooooooooo",
"oooooooooooo .X. o .X. ooooooooo",
"ooooooooooooo .X. .X. oooooooooo",
"oooooooooooooo .X.X. ooooooooooo",
"ooooooooooooooo .X. oooooooooooo",
"ooooooooooooooo .X. oooooooooooo",
"ooooooooooooooo .X. oooooooooooo",
"ooooooooooooooo .X. oooooooooooo",
"ooooooooooooooo .X. oooooooooooo",
"ooooooooooooooo .X. oooooooooooo",
"ooooooooooooooo .X. oooooooooooo",
"ooooooooooooooo .X. oooooooooooo",
"ooooooooooooo   .X. oooooooooooo",
"oooooooooooo XXXXX. oooooooooooo",
"ooooooooooooo  XXX. oooooooooooo",
"oooooooooooo XXXXX. oooooooooooo",
"oooooooooooo XXXXX. oooooooooooo",
"ooooooooooooo XXXX. oooooooooooo",
"oooooooooooooo  XX. oooooooooooo",
"oooooooooooooooo X ooooooooooooo",
"ooooooooooooooooo oooooooooooooo",
"oooooooooooooooooooooooooooooooo"
};
