/* XPM */
static char *_643638019072[] = {
/* columns rows colors chars-per-pixel */
"32 32 4 1 ",
"  c #222034",
". c gray78",
"X c gray82",
"o c None",
/* pixels */
"oooooooooooooooooooooooooooooooo",
"oooooooooooooooooooooooooooooooo",
"oooooooooooooooo   ooooooooooooo",
"ooooooooooooooo ... oooooooooooo",
"ooooooooooooooo .X. oooooooooooo",
"oooooooooooooo .X X. ooooooooooo",
"ooooooooooooo .X. .X. oooooooooo",
"ooooooooooooo .X o X. oooooooooo",
"ooooooooooooo .X o X. oooooooooo",
"ooooooooooooo .X o X. oooooooooo",
"ooooooooooooo .X. .X. oooooooooo",
"oooooooooooooo .X X. ooooooooooo",
"ooooooooooooooo .X. oooooooooooo",
"ooooooooooooooo .X. oooooooooooo",
"ooooooooooooooo .X. oooooooooooo",
"ooooooooooooooo .X. oooooooooooo",
"ooooooooooooooo .X. oooooooooooo",
"ooooooooooooooo .X. oooooooooooo",
"ooooooooooooooo .X. oooooooooooo",
"ooooooooooooooo .X. oooooooooooo",
"ooooooooooooooo .X. oooooooooooo",
"oooooooooooooo  .X. oooooooooooo",
"ooooooooooooo XXXX. oooooooooooo",
"oooooooooooooo  .X. oooooooooooo",
"ooooooooooooo XXXX. oooooooooooo",
"ooooooooooooo XXXX. oooooooooooo",
"oooooooooooooo XXX. oooooooooooo",
"ooooooooooooooo XX. oooooooooooo",
"oooooooooooooooo X ooooooooooooo",
"ooooooooooooooooo oooooooooooooo",
"oooooooooooooooooooooooooooooooo",
"oooooooooooooooooooooooooooooooo"
};
