/* XPM */
static char *c4a3f1e298f24ec4f9bb23daa5e10035mfxbqjgyqRjnY1bE[] = {
/* columns rows colors chars-per-pixel */
"32 32 4 1 ",
"  c #686F16",
". c #72751B",
"X c #787B21",
"o c #7F8124",
/* pixels */
"................................",
"................................",
"................................",
"................................",
"................................",
"................................",
"................................",
"................................",
"................................",
".......o........................",
"......XX..ooX...................",
"...X..X .XXo....................",
"....oX ..XX ....................",
"....XX..XX Xo...................",
"..... ..X XX ...................",
"........  X ....................",
"................................",
"oX..............................",
"oXX.............................",
" XX....................oo....XX.",
".  .....................oXX.oo..",
".....................Xoo X XX ..",
"......................oXX  XX ..",
"...................... XX..X ...",
"....................... X.......",
"..............oo................",
".........X..XXo.................",
".........oo XX .................",
".........oXX  ..................",
"......... XX....................",
"................................",
"................................"
};
