/* XPM */
static char *result[] = {
/* columns rows colors chars-per-pixel */
"32 32 9 1 ",
"  c black",
". c #020307",
"X c #05090F",
"o c #0C0E17",
"O c #0F1A25",
"+ c #1D303B",
"@ c #552F87",
"# c #9F51F7",
"$ c None",
/* pixels */
"$$$$$$$$$$$$$$$$$$$$$$$$$$$$$$$$",
"$$$$$$$$$$$$$$$$$$$$$$$$$$$$$$$$",
"$$$$$$$$$$$$$$$$$$$$$$$$$$$$$$$$",
"$$$$$$$$$$$$$$$$$X$$$$X$$$$$$$$$",
"$$$$$$$$$$$$$$$$$OOO$$XO$$$$$$$$",
"$$$$$$$$$$$$$$$$$$+OO$$oO$$$$$$$",
"$$$$$$$$$$$$$$$$$$$+O$$oO$$$$$$$",
"$$$$$$$$$+O+++O$$$$+O$OoO$$$$$$$",
"$$$$++X$+++O+++O$$$OO+OO$$$$$$$$",
"$$+O++++OO++O+++OO OO++O$$$$$$$$",
"$O++OO+O++++O+++XX OO#+#$$$$$$$$",
"+++O$$$$+++O+OOOXXXOO++O$$$$$$$$",
"O+O$$$$$$$$XO+OXOOX O++$$$$$$$$$",
"+O$$$$$$$$+OOOXOOXOX$$$$$$$$$$$$",
"O$$$$$$$$$O+OOOXOOOO$$$$$$$$$$$$",
"$$$$$$$$$$+OXXXOXOOO $$XO$$$$$$$",
"$$$$$$$$$###+O@@$$OOX O O$$$$$$$",
"$$$$$$$$$++##@@OO$$ OX  $$$$$$$$",
"$$$$$$$$$X+XXXX..o$$ O $$$$$$$$$",
"$$$$$$$$$XXXXX....o$$$$$$$$$$$$$",
"$$$$$$$$$$$XXXX.ooX@$$$$$$$$$$$$",
"$$$$$$$$$$$$oX.oooXo#$$$$$$$$$$$",
"$$$$$$$$$$$$oXoooo @$$$$$$$$$$$$",
"$$$$$$$$$$ooXXooo$$$$$$$$$$$$$$$",
"$$$$$$$$$oXoXXo$$$$$$$$$$$$$$$$$",
"$$$$$+XXXXoXX@$$$$$$$$$$$$$$$$$$",
"$$$$$X+oooXX@#$$$$$$$$$$$$$$$$$$",
"$$$$$X$$$$$$$$$$$$$$$$$$$$$$$$$$",
"$$$$$$$$$$$$$$$$$$$$$$$$$$$$$$$$",
"$$$$$$$$$$$$$$$$$$$$$$$$$$$$$$$$",
"$$$$$$$$$$$$$$$$$$$$$$$$$$$$$$$$",
"$$$$$$$$$$$$$$$$$$$$$$$$$$$$$$$$"
};
