/* XPM */
static char *_1960f0ac7884454abdb746fdb71a47cjxX7BKMQk2vLAF42[] = {
/* columns rows colors chars-per-pixel */
"32 32 4 1 ",
"  c None",
". c #0C0D14",
"X c #181C28",
"o c #406D6B",
/* pixels */
"                                ",
"                                ",
"                                ",
"                                ",
"            X      X            ",
"            XX    XX            ",
"            XXXXXXXX...         ",
"            XXXXXXXXX  .        ",
"           XXXXXXXXXXX  .       ",
"          XXXXXXXXXXXX   .      ",
"        ..XXXXXXXXXXXXX  .      ",
"       .  XXXXXXXXXXXXX..       ",
"      .  XXXXXXXXXXXXXX         ",
"      .  XXXXXXXXXXXXXX         ",
"      .  XXXXXXXXXXXXXXX        ",
"       . XXXXXXXXXXXXXXX        ",
"        .XXXXXXXXXXXXXXX        ",
"         XXXXXXXXXXXXXXX        ",
"         XXXXXXXXXXXXXX         ",
"         XXXXXXXX.XXXX          ",
"         XXXXXXX...XXX          ",
"           XXXX.....XX          ",
"           XXXX..... X          ",
"            XX.   .             ",
"          ooXo.ooo.ooo          ",
"       ooooooo.ooo.oooooo       ",
"       oooooooooooooooooo       ",
"          oooooooooooo          ",
"                                ",
"                                ",
"                                ",
"                                "
};
