/* XPM */
static char *_fd570a59fce41f581de9ec514559bf7BcnSux6mIzp3n2Ty[] = {
/* columns rows colors chars-per-pixel */
"32 33 49 1 ",
"  c #4F2913",
". c #4F311E",
"X c #53321E",
"o c #4F3625",
"O c #543624",
"+ c #553726",
"@ c #553827",
"# c #563B2A",
"$ c #573C2D",
"% c #593D2A",
"& c #573F30",
"* c #583F30",
"= c #5B4231",
"- c #584132",
"; c #56463A",
": c #5A4739",
"> c #56483B",
", c #5B483B",
"< c #594B3E",
"1 c #5C493D",
"2 c #5C4B3F",
"3 c #5C4B40",
"4 c #5D4D41",
"5 c #5E4F45",
"6 c #5C5147",
"7 c #5E5146",
"8 c #5C5247",
"9 c #5F5349",
"0 c #5F564B",
"q c #5C554C",
"w c #60574C",
"e c #60584D",
"r c #655C55",
"t c #655D56",
"y c #665F58",
"u c #676159",
"i c #676259",
"p c #69635B",
"a c #69645B",
"s c #69645C",
"d c #6A645C",
"f c #6A655C",
"g c #6B665D",
"h c #6B675D",
"j c #6C675E",
"k c #6D685F",
"l c #6D6960",
"z c #6F6A61",
"x c #726E69",
/* pixels */
"gggggggggagggggjjjjjjjjjjjggjjj=",
"ggggggggagagagagajjajagajggjgag=",
"gggapgpgggaggagggajaag0ggagagja%",
"pappppppigigagugagagggz00gagaagX",
"pppapaaauguigpuggagiguujz0igigiX",
"uauapuupgiuguugigiiaugpgsz00gigX",
"auauuaauiiuguuguuiiuuiiusj000>:X",
"uutauiuuuuuiiiiiiiuuuiiuu000;;;X",
" ptuuuuuuuuauuiiiiiiuiiq8      8",
"<                        8888888",
"888888.6666688886688668888888888",
"888888.8666688886666668888888888",
"888888o8667777778888888888888888",
"888888o8887069088888888888888888",
"888888o8880868888888888888888888",
"888888o8688866888888888888888888",
"uuuugt-uuuuuuuuuiiiiuututuypyptp",
"uuuutuOuuuutuuuyiiiuuaguuiyupyuu",
"09--$%O#&99909990676444660709909",
"xxxxxxxxxxxxxxxxzxxxx4gzjjgjzjjg",
"tuiuuuuuuuuuuuuuuuuuu3utuuuutyuu",
"uuuuuuuuuuuuuuuupuuup4uuuuuuupuu",
"uuuuuuuuuuuuuuuuyuuuu4auuuuuuuuu",
"uuuuuuuuuuuuuuuupyuuu2tpuuuuuuuu",
"uuuuuuuuuygyuusyuuuyu4uuuupyptpu",
"uuysuuuuuyyupuuuuuusu-uuuuyuypuu",
"uuututuupyyyyuuuuuuuu$uuuyytyyuu",
"990:<,7,,,98999::<$$OO+$0900ww08",
"gzjzkg4klplllgzgpgppppgppggppppj",
"yyyyut3yyyyyyyyyyyyyyyyyyyyytyyy",
"yyyyyu,yyyyyyyyyyyyyyyyyyyyyyyyy",
"yyyyyt5tyyyyyyyyyyyyyyyyyyyyyyyy",
"yyyyyy5ryyyyyyyyyyyyyyyyyyyyyyyy"
};
